<svg xmlns="http://www.w3.org/2000/svg" width="600" height="150.302" viewBox="0 0 600 150.302">
  <g id="bis" transform="translate(131.8 -199.7)">
    <path id="Path_20" data-name="Path 20" d="M-5.8,346.9H-8.4V321.7l-51-44.5h-72.3v-4.8h72.3l51-44.3V202.7H-3V228l51,44.3h72c0,.9.1,1.7.1,2.4,0,.9-.1,1.7-.1,2.4H48L-3,321.6v25.2H-5.8Z" fill="#d2d4d4"/>
    <path id="Path_21" data-name="Path 21" d="M-131.8,277.2h72.3l51,44.5v25.2c-66.8-.7-121.1-31.5-123.3-69.7m72.3-4.9h-72.3c2.2-38.3,56.5-68.9,123.3-69.7V228ZM-3,346.9h0V321.7l51-44.5h72c-2.2,38.2-56.2,69-123,69.7m51-74.6L-3,228V202.6c66.8.8,120.8,31.5,123,69.7Z" fill="#aa322f"/>
    <path id="Path_22" data-name="Path 22" d="M369.2,304c-.4,13.9-.4,46.3,48,46,27.1,0,51-9.8,51-40.1,0-45.8-73.7-41.2-73.7-73.1,0-15.5,12.7-21.2,25.2-21.2,19.9,0,25.6,10.4,25.3,26.2h21.9c1.3-29.3-15.5-42.1-45.6-42.1-27.5,0-48.3,13.6-48.3,39.2,0,43.4,73.9,39.8,73.9,71.8,0,17.2-12.9,23.4-29.4,23.4-13.5,0-27.6-6.2-27.6-25.8V304Zm-42-101.3H306.3V347h20.9ZM180.7,218.8h29.5c17.6,0,25.3,9.8,25.3,21.7,0,14-8,22.9-24.4,23H180.7V218.8Zm0,60.7h22.2c21.4,0,37.6,4,37.6,27,0,10.7-8,24.7-30.3,24.7H180.7ZM212.4,347c18.7,0,49.4-3.6,49.4-40.6,0-19.8-10.2-32.2-33.6-34.5v-1c21.2-4.2,28.2-16.2,28.2-34.2a35.611,35.611,0,0,0-6.6-19.3c-6.1-8-13.9-14.8-36.7-14.8H159.6V347Z" fill="#bfbfbf"/>
  </g>
</svg>
