<svg xmlns="http://www.w3.org/2000/svg" xmlns:xlink="http://www.w3.org/1999/xlink" width="481.336" height="55.924" viewBox="0 0 481.336 55.924">
  <defs>
    <linearGradient id="linear-gradient" x1="0.121" y1="0.065" x2="0.77" y2="0.75" gradientUnits="objectBoundingBox">
      <stop offset="0" stop-color="#4447a4"/>
      <stop offset="1" stop-color="#3b3b4e"/>
    </linearGradient>
  </defs>
  <g id="cebato" transform="translate(-314.588 -276)">
    <g id="Logo" transform="translate(0 5.714)">
      <path id="Path_23" data-name="Path 23" d="M28.842.414A26.36,26.36,0,0,1,15.9-2.76a23.243,23.243,0,0,1-9.039-8.8A24.545,24.545,0,0,1,3.588-24.15,24.545,24.545,0,0,1,6.866-36.743a23.18,23.18,0,0,1,9.073-8.8,26.557,26.557,0,0,1,12.972-3.174,26.874,26.874,0,0,1,9.936,1.794,20.6,20.6,0,0,1,7.728,5.244l-3.243,3.243A19.239,19.239,0,0,0,29.049-44.16,20.991,20.991,0,0,0,18.63-41.538a19.159,19.159,0,0,0-7.349,7.176A19.891,19.891,0,0,0,8.625-24.15a19.891,19.891,0,0,0,2.657,10.212A19.159,19.159,0,0,0,18.63-6.762,20.991,20.991,0,0,0,29.049-4.14a18.979,18.979,0,0,0,14.283-5.8l3.243,3.243a20.888,20.888,0,0,1-7.763,5.279A26.691,26.691,0,0,1,28.842.414Zm102.051-4.83V0H96.738V-48.3h33.12v4.416H101.844V-26.7h24.978v4.347H101.844v17.94Zm81.7-20.493a12.808,12.808,0,0,1,7.348,4.106,11.84,11.84,0,0,1,2.588,7.9,11.117,11.117,0,0,1-4.589,9.557Q213.348,0,204.378,0H182.16V-48.3H203q8.073,0,12.524,3.243a10.686,10.686,0,0,1,4.451,9.177,11.509,11.509,0,0,1-1.967,6.8A11.789,11.789,0,0,1,212.589-24.909ZM187.266-44.091v17.526h15.387q5.865,0,9.039-2.243a7.484,7.484,0,0,0,3.174-6.521,7.484,7.484,0,0,0-3.174-6.521q-3.174-2.242-9.039-2.243ZM204.309-4.209q6.486,0,9.8-2.208t3.312-6.9q0-9.039-13.11-9.039H187.266V-4.209ZM303.738-12.9h-26.91L271.032,0h-5.313L287.8-48.3h5.037L314.916,0h-5.382Zm-1.863-4.14L290.283-42.987,278.691-17.043ZM369.15-43.884H352.176V-48.3H391.23v4.416H374.256V0H369.15Z" transform="translate(311 322)" fill="#fff"/>
    </g>
    <g id="Group_29" data-name="Group 29" transform="translate(-2 -104)">
      <path id="Path_24" data-name="Path 24" d="M27.962,0A27.962,27.962,0,1,1,0,27.962,27.962,27.962,0,0,1,27.962,0Z" transform="translate(742 380)" fill="url(#linear-gradient)"/>
      <g id="Continents" transform="translate(753.031 383.76)">
        <path id="Path_1" data-name="Path 1" d="M-1355,291.953l-1.423.689-.413,1.01-1.515.321-1.607-.321v-1.423l1.377-2.158,2.158.505.826-.505-.826-1.836.826-.872,1.745-.964h1.423l2.433.23h1.147l2.25-1.928,2.112,6.29-2.525,2.663-1.1.643v1.469l-1.423-2.387-1.791-2.387,1.331,2.984-1.331,1.331-1.1-1.01,1.1-.643-1.1-1.7Z" transform="translate(1365.743 -273.576)" opacity="0.8"/>
        <path id="Path_2" data-name="Path 2" d="M-1354.32,296.034l-6.381-.6-4.086,2.846-1.377,4.04v2.892l3.765,4.545s3.9.23,3.765.321a26.139,26.139,0,0,0,3.03,1.285l.367,3.856.6,2.433.321,3.076,2.341,1.974h6.29l2.25-1.974,2.571-2.25v-3.26l3.765-4.086,1.377-3.9-3.627.78-1.791-2.8-2.938-5,1.561-.551-1.148-1.377-4.5.689-2.433-.689-1.056.689Z" transform="translate(1366.165 -274.305)" opacity="0.8"/>
        <path id="Path_3" data-name="Path 3" d="M-1337.615,305.318c-.183-.046-3.489-5.509-3.489-5.509v-2.02l-1.561-1.056.229-1.148-3.305-1.148-.643-1.561,1.01-.964h3.535v-1.148l-2.02-.275-3.076-8.539-2.617,3.81-1.836-3.122,5.234-3.489,2.8,1.836s3.076-2.617,3.076-2.341a43.611,43.611,0,0,0,2.433-3.719l1.607-.964,8.493,8.677,3.306,6.2.826,5.142-.551,5.831-.826,3.627-3.122-4.821-2.617-.826-2.341.826-3.489-.826,1.745,1.607,3.076.735-2.846,4.224Z" transform="translate(1365.161 -272.846)" opacity="0.8"/>
        <path id="Path_4" data-name="Path 4" d="M-1359.988,278.627l2.86-.636,2.79-.177,4.8-2.578-1.342-1.342v-1.13h-3.214l-5.9,2.3-6.109,4.485.459,1.766,5.3-4.591,7.028-3Z" transform="translate(1366.16 -272.765)" opacity="0.8"/>
      </g>
    </g>
  </g>
</svg>
